<?xml version="1.0" encoding="UTF-8" standalone="no"?>
<svg
   xmlns:dc="http://purl.org/dc/elements/1.1/"
   xmlns:cc="http://creativecommons.org/ns#"
   xmlns:rdf="http://www.w3.org/1999/02/22-rdf-syntax-ns#"
   xmlns:svg="http://www.w3.org/2000/svg"
   xmlns="http://www.w3.org/2000/svg"
   viewBox="0 0 1017.3333 124"
   height="124"
   width="1017.3333"
   xml:space="preserve"
   id="svg2"
   version="1.1"><metadata
     id="metadata8"><rdf:RDF><cc:Work
         rdf:about=""><dc:format>image/svg+xml</dc:format><dc:type
           rdf:resource="http://purl.org/dc/dcmitype/StillImage" /></cc:Work></rdf:RDF></metadata><defs
     id="defs6" /><g
     transform="matrix(1.3333333,0,0,-1.3333333,0,124)"
     id="g10"><g
       transform="scale(0.1)"
       id="g12"><path
         id="path14"
         style="fill:#ffffff;fill-opacity:1;fill-rule:nonzero;stroke:none"
         d="M 0,0 H 7630 V 930 H 0 Z" /><path
         id="path16"
         style="fill:#ffffff;fill-opacity:1;fill-rule:nonzero;stroke:none"
         d="M 0,0 H 32766 V 12750 H 0 Z" /><path
         id="path18"
         style="fill:#ffffff;fill-opacity:1;fill-rule:nonzero;stroke:none"
         d="m 250,545 h 960 c 132.55,0 240,-107.453 240,-240 V 270 C 1450,137.453 1342.55,30 1210,30 H 250 C 117.453,30 10,137.453 10,270 v 35 c 0,132.547 107.453,240 240,240 z" /><path
         id="path20"
         style="fill:none;stroke:#fdc049;stroke-width:20;stroke-linecap:round;stroke-linejoin:round;stroke-miterlimit:10;stroke-dasharray:none;stroke-opacity:1"
         d="m 250,545 h 960 c 132.55,0 240,-107.453 240,-240 V 270 C 1450,137.453 1342.55,30 1210,30 H 250 C 117.453,30 10,137.453 10,270 v 35 c 0,132.547 107.453,240 240,240 z" /><g
         transform="scale(10)"
         id="g22"><text
           id="text26"
           style="font-variant:normal;font-weight:900;font-size:22px;font-family:Avenir;-inkscape-font-specification:Avenir-Heavy;writing-mode:lr-tb;fill:#4a4c4e;fill-opacity:1;fill-rule:nonzero;stroke:none"
           transform="matrix(1,0,0,-1,53.2328,22.25)"><tspan
             id="tspan24"
             y="0"
             x="0 13.046 25.674">ﬁnd</tspan></text>
</g><path
         id="path28"
         style="fill:#ffffff;fill-opacity:1;fill-rule:nonzero;stroke:none"
         d="m 3045,525 h 260 c 132.55,0 240,-107.453 240,-240 V 270 C 3545,137.453 3437.55,30 3305,30 h -260 c -132.55,0 -240,107.453 -240,240 v 15 c 0,132.547 107.45,240 240,240 z" /><path
         id="path30"
         style="fill:none;stroke:#fdc049;stroke-width:20;stroke-linecap:round;stroke-linejoin:round;stroke-miterlimit:10;stroke-dasharray:none;stroke-opacity:1"
         d="m 3045,525 h 260 c 132.55,0 240,-107.453 240,-240 V 270 C 3545,137.453 3437.55,30 3305,30 h -260 c -132.55,0 -240,107.453 -240,240 v 15 c 0,132.547 107.45,240 240,240 z" /><g
         transform="scale(10)"
         id="g32"><text
           id="text36"
           style="font-variant:normal;font-weight:900;font-size:22px;font-family:Avenir;-inkscape-font-specification:Avenir-Heavy;writing-mode:lr-tb;fill:#4a4c4e;fill-opacity:1;fill-rule:nonzero;stroke:none"
           transform="matrix(1,0,0,-1,304.663,21.25)"><tspan
             id="tspan34"
             y="0"
             x="0 14.256">By</tspan></text>
</g><path
         id="path38"
         style="fill:#ffffff;fill-opacity:1;fill-rule:nonzero;stroke:none"
         d="m 1572.5,525 h 1110 c 22.09,0 40,-17.91 40,-40 V 65 c 0,-22.0898 -17.91,-40 -40,-40 h -1110 c -22.09,0 -40,17.9102 -40,40 v 420 c 0,22.09 17.91,40 40,40 z" /><path
         id="path40"
         style="fill:none;stroke:#b9bfc1;stroke-width:20;stroke-linecap:round;stroke-linejoin:round;stroke-miterlimit:10;stroke-dasharray:none;stroke-opacity:1"
         d="m 1572.5,525 h 1110 c 22.09,0 40,-17.91 40,-40 V 65 c 0,-22.0898 -17.91,-40 -40,-40 h -1110 c -22.09,0 -40,17.9102 -40,40 v 420 c 0,22.09 17.91,40 40,40 z" /><g
         transform="scale(10)"
         id="g42"><text
           id="text46"
           style="font-variant:normal;font-weight:900;font-size:19px;font-family:Avenir;-inkscape-font-specification:Avenir-Heavy;writing-mode:lr-tb;fill:#494c4e;fill-opacity:1;fill-rule:nonzero;stroke:none"
           transform="matrix(1,0,0,-1,167.701,21.5)"><tspan
             id="tspan44"
             y="0"
             x="0 11.609 18.658001 30.229 35.188 46.094002 55.251999 62.661999 67.601997 79.192001">Projection</tspan></text>
</g><path
         id="path48"
         style="fill:#ffffff;fill-opacity:1;fill-rule:nonzero;stroke:none"
         d="m 3667.5,545 h 1110 c 22.09,0 40,-17.91 40,-40 V 85 c 0,-22.0898 -17.91,-40 -40,-40 h -1110 c -22.09,0 -40,17.9102 -40,40 v 420 c 0,22.09 17.91,40 40,40 z" /><path
         id="path50"
         style="fill:none;stroke:#b9bfc1;stroke-width:20;stroke-linecap:round;stroke-linejoin:round;stroke-miterlimit:10;stroke-dasharray:none;stroke-opacity:1"
         d="m 3667.5,545 h 1110 c 22.09,0 40,-17.91 40,-40 V 85 c 0,-22.0898 -17.91,-40 -40,-40 h -1110 c -22.09,0 -40,17.9102 -40,40 v 420 c 0,22.09 17.91,40 40,40 z" /><g
         transform="scale(10)"
         id="g52"><text
           id="text56"
           style="font-variant:normal;font-weight:900;font-size:19px;font-family:Avenir;-inkscape-font-specification:Avenir-Heavy;writing-mode:lr-tb;fill:#494c4e;fill-opacity:1;fill-rule:nonzero;stroke:none"
           transform="matrix(1,0,0,-1,383.366,23.5)"><tspan
             id="tspan54"
             y="0"
             x="0 11.609 18.658001 30.247999 42.217999 53.124001 60.514999 67.905998">Property</tspan></text>
</g><path
         id="path58"
         style="fill:#ffffff;fill-opacity:1;fill-rule:nonzero;stroke:none"
         d="m 5140,532.5 h 960 c 132.55,0 240,-107.453 240,-240 v -35 c 0,-132.547 -107.45,-240 -240,-240 h -960 c -132.55,0 -240,107.453 -240,240 v 35 c 0,132.547 107.45,240 240,240 z" /><path
         id="path60"
         style="fill:none;stroke:#fdc049;stroke-width:20;stroke-linecap:round;stroke-linejoin:round;stroke-miterlimit:10;stroke-dasharray:none;stroke-opacity:1"
         d="m 5140,532.5 h 960 c 132.55,0 240,-107.453 240,-240 v -35 c 0,-132.547 -107.45,-240 -240,-240 h -960 c -132.55,0 -240,107.453 -240,240 v 35 c 0,132.547 107.45,240 240,240 z" /><g
         transform="scale(10)"
         id="g62"><text
           id="text66"
           style="font-variant:normal;font-weight:900;font-size:22px;font-family:Avenir;-inkscape-font-specification:Avenir-Heavy;writing-mode:lr-tb;fill:#4a4c4e;fill-opacity:1;fill-rule:nonzero;stroke:none"
           transform="matrix(1,0,0,-1,518.396,21)"><tspan
             id="tspan64"
             y="0"
             x="0 18.326 26.488001 40.348 52.976002 61.534 75.790001">OrderBy</tspan></text>
</g><path
         id="path68"
         style="fill:#ffffff;fill-opacity:1;fill-rule:nonzero;stroke:none"
         d="m 6462.5,517.5 h 1110 c 22.09,0 40,-17.91 40,-40 v -420 c 0,-22.0898 -17.91,-40 -40,-40 h -1110 c -22.09,0 -40,17.9102 -40,40 v 420 c 0,22.09 17.91,40 40,40 z" /><path
         id="path70"
         style="fill:none;stroke:#b9bfc1;stroke-width:20;stroke-linecap:round;stroke-linejoin:round;stroke-miterlimit:10;stroke-dasharray:none;stroke-opacity:1"
         d="m 6462.5,517.5 h 1110 c 22.09,0 40,-17.91 40,-40 v -420 c 0,-22.0898 -17.91,-40 -40,-40 h -1110 c -22.09,0 -40,17.9102 -40,40 v 420 c 0,22.09 17.91,40 40,40 z" /><g
         transform="scale(10)"
         id="g72"><text
           id="text76"
           style="font-variant:normal;font-weight:900;font-size:19px;font-family:Avenir;-inkscape-font-specification:Avenir-Heavy;writing-mode:lr-tb;fill:#494c4e;fill-opacity:1;fill-rule:nonzero;stroke:none"
           transform="matrix(1,0,0,-1,662.866,20.75)"><tspan
             id="tspan74"
             y="0"
             x="0 11.609 18.658001 30.247999 42.217999 53.124001 60.514999 67.905998">Property</tspan></text>
</g><g
         transform="scale(10)"
         id="g78"><text
           id="text82"
           style="font-variant:normal;font-weight:normal;font-size:16px;font-family:HelveticaNeue;-inkscape-font-specification:HelveticaNeue;writing-mode:lr-tb;fill:#000000;fill-opacity:1;fill-rule:nonzero;stroke:none"
           transform="matrix(1,0,0,-1,173.412,72.5)"><tspan
             id="tspan80"
             y="0"
             x="0 4.1440001 16.304001 25.792 30.832001 34.383999 43.568001 52.464001 61.056 64.592003">(Optional)</tspan></text>
</g><g
         transform="scale(10)"
         id="g84"><text
           id="text88"
           style="font-variant:normal;font-weight:normal;font-size:16px;font-family:HelveticaNeue;-inkscape-font-specification:HelveticaNeue;writing-mode:lr-tb;fill:#000000;fill-opacity:1;fill-rule:nonzero;stroke:none"
           transform="matrix(1,0,0,-1,522,72.5)"><tspan
             id="tspan86"
             y="0"
             x="0 4.1440001 16.304001 25.792 30.832001 34.383999 43.568001 52.464001 61.056 64.592003">(Optional)</tspan></text>
</g><g
         transform="scale(10)"
         id="g90"><text
           id="text94"
           style="font-variant:normal;font-weight:normal;font-size:16px;font-family:HelveticaNeue;-inkscape-font-specification:HelveticaNeue;writing-mode:lr-tb;fill:#000000;fill-opacity:1;fill-rule:nonzero;stroke:none"
           transform="matrix(1,0,0,-1,659,72.5)"><tspan
             id="tspan92"
             y="0"
             x="0 4.1440001 16.304001 25.792 30.832001 34.383999 43.568001 52.464001 61.056 64.592003">(Optional)</tspan></text>
</g></g></g></svg>